<svg width="126" height="126" viewBox="0 0 126 126" fill="none" xmlns="http://www.w3.org/2000/svg">
<rect x="4" y="4" width="118" height="118" rx="59" fill="white"/>
<path fill-rule="evenodd" clip-rule="evenodd" d="M126 63C126 97.792 97.792 126 63 126C28.208 126 0 97.792 0 63C0 28.208 28.208 0 63 0C97.7993 0 126 28.208 126 63ZM31.0816 65.1169L31.3534 64.6896L47.7422 39.0514C47.9817 38.676 48.5448 38.7148 48.726 39.1226C51.464 45.2586 53.8265 52.89 52.7197 57.6409C52.2472 59.5957 50.9527 62.2429 49.4962 64.6896C49.3086 65.0457 49.1015 65.3952 48.8814 65.7318C48.7778 65.8871 48.603 65.9777 48.4153 65.9777H31.5605C31.1074 65.9777 30.8421 65.4858 31.0816 65.1169ZM104.132 73.9392V69.8808C104.132 69.5053 103.77 69.2336 103.414 69.3371L84.248 74.8777C84.1445 74.9036 84.0537 74.9618 83.9826 75.0395C81.93 77.3068 80.1855 78.8285 79.7233 79.2316L79.6912 79.2596C78.5003 80.2694 77.0245 80.8196 75.471 80.8196H68.5323V73.745H74.0471C74.1895 73.745 74.3254 73.6932 74.429 73.6026L75.1409 72.9488C75.4452 72.6705 75.8077 72.3339 76.2412 71.9002C76.278 71.8634 76.3154 71.8262 76.3531 71.7886C76.581 71.5615 76.8246 71.3188 77.0633 71.0524C77.3481 70.774 77.6265 70.4633 77.8853 70.1592C78.319 69.6931 78.7333 69.2076 79.167 68.6963C79.4777 68.3597 79.7624 67.9778 80.0408 67.5959C80.3515 67.2334 80.6556 66.8257 80.9404 66.4374C81.0464 66.2816 81.1592 66.1242 81.2745 65.9633C81.3844 65.8099 81.4965 65.6534 81.6071 65.4924C81.8142 65.1816 82.0214 64.8515 82.1961 64.5408C82.7398 63.6994 83.1995 62.7996 83.5878 61.9C83.766 61.5146 83.9085 61.1089 84.0471 60.7145C84.0645 60.665 84.0818 60.6157 84.0991 60.5666C84.2545 60.107 84.3839 59.6734 84.481 59.2138C84.714 58.1328 84.7658 57.0584 84.6622 55.9839C84.6364 55.6474 84.6104 55.3172 84.5328 55.0066V54.9549C84.5068 54.7347 84.455 54.4888 84.3839 54.2622C84.1509 53.2137 83.7884 52.1651 83.3289 51.1359C83.1735 50.754 82.9923 50.3657 82.8176 50.0097C82.4033 49.2395 81.9696 48.4691 81.4777 47.7248C81.379 47.5677 81.27 47.4084 81.1611 47.2494C81.0772 47.1269 80.9934 47.0046 80.9146 46.8834C80.6031 46.4029 80.2528 45.9397 79.9129 45.4902C79.8361 45.3886 79.7598 45.2878 79.6847 45.1876C79.4841 44.9241 79.2645 44.6607 79.0434 44.3956C78.9222 44.2502 78.8006 44.1044 78.6815 43.9577C78.3449 43.55 78.0148 43.1616 77.6783 42.7797C76.4743 41.4204 75.2122 40.1907 74.0859 39.1421C73.8787 38.935 73.6522 38.7278 73.4192 38.5272C72.5454 37.731 71.7492 37.0384 71.0825 36.5013C70.8822 36.3472 70.7025 36.1953 70.5353 36.054C70.4215 35.9579 70.3135 35.8666 70.2087 35.7828C70.0066 35.6321 69.8312 35.4985 69.684 35.3864C69.5907 35.3153 69.5088 35.2529 69.4385 35.2002C69.3867 35.1614 69.3285 35.1356 69.2703 35.116L68.5323 34.909V28.7988C68.5323 27.802 68.131 26.9088 67.4903 26.2549C66.8494 25.6013 65.9562 25.2 64.9724 25.2C63.0047 25.2 61.4124 26.8116 61.4124 28.7988V32.9153L61.0435 32.8119L60.0402 32.527L59.1275 32.2746C59.1211 32.2746 59.1146 32.268 59.1017 32.268H59.0823L52.1565 30.391C51.8523 30.3069 51.5934 30.637 51.7487 30.9153L52.8555 32.9607C52.9184 33.1179 52.998 33.2751 53.0798 33.4366C53.1327 33.5411 53.1866 33.6475 53.2374 33.7569C53.4187 34.1192 53.5999 34.5011 53.7747 34.8831C53.93 35.2196 54.0854 35.5497 54.2666 35.9122C54.3428 36.0827 54.4205 36.2552 54.4992 36.4301C54.7885 37.0725 55.0927 37.748 55.3928 38.4754C55.6517 39.0903 55.9106 39.7052 56.1372 40.346C56.7586 41.9577 57.3475 43.6794 57.859 45.4465C57.9862 45.842 58.0879 46.2247 58.191 46.6126C58.2347 46.777 58.2787 46.9423 58.3249 47.11L58.3961 47.4206C58.6033 48.2427 58.7846 49.0582 58.914 49.8802C59.0175 50.4433 59.1146 50.9806 59.1663 51.5243C59.2441 52.1391 59.3217 52.7541 59.3477 53.369C59.3994 53.9321 59.4253 54.5212 59.4253 55.0843C59.4253 56.5212 59.2959 57.9063 58.9916 59.2138C58.9725 59.284 58.9535 59.3551 58.9343 59.4269C58.8491 59.745 58.7607 60.0749 58.655 60.3919C58.5595 60.7313 58.4356 61.0706 58.3069 61.4231C58.2614 61.5478 58.2153 61.6742 58.1696 61.8028C58.161 61.8258 58.1525 61.8487 58.144 61.8717C58.0488 62.1281 57.9519 62.389 57.833 62.6444C57.1922 64.1849 56.3961 65.7189 55.5741 67.1558C54.3702 69.2853 53.1598 71.1559 52.3118 72.3599C52.26 72.4377 52.2094 72.5116 52.1607 72.5828C52.0999 72.6716 52.0421 72.7562 51.9883 72.8388C51.7229 73.2141 51.9947 73.745 52.4542 73.745H61.4124V80.8196H52.3506C49.9169 80.8196 47.6644 79.4409 46.5771 77.2337C46.014 76.1269 45.7938 74.91 45.9234 73.719C45.9556 73.3631 45.6903 73.0265 45.3279 73.0265H27.0231C26.7124 73.0265 26.46 73.2789 26.46 73.5896V73.965C26.46 85.6418 35.8907 95.1048 47.5285 95.1048H80.3643C86.5194 95.1048 90.0144 89.4959 93.4496 83.983C94.4072 82.4462 95.3602 80.9169 96.3648 79.5186C98.1707 77.0071 102.514 75.0136 103.782 74.4699C103.99 74.3793 104.132 74.1721 104.132 73.9392Z" fill="#F27807"/>
<rect x="4" y="4" width="118" height="118" rx="59" stroke="black" stroke-width="8"/>
</svg>
